<?xml version="1.0" encoding="utf-8"?>
<!-- Generator: Adobe Illustrator 27.5.0, SVG Export Plug-In . SVG Version: 6.00 Build 0)  -->
<svg version="1.1" id="Capa_1" xmlns="http://www.w3.org/2000/svg" xmlns:xlink="http://www.w3.org/1999/xlink" x="0px" y="0px"
	 viewBox="0 0 2372 1898" style="enable-background:new 0 0 2372 1898;" xml:space="preserve">
<path style="fill:#369BD7;" d="M677.292,1367.179c146.982,47.014,321.445,74.25,508.562,74.25
	c187.119,0,361.581-27.237,508.564-74.251c264.582-84.63,440.12-233.349,440.12-402.682c0-254.29-395.86-462.097-894.673-476.172
	c16.306,10.426,31.697,21.673,46.051,33.577c442.2,24.989,785.91,213.612,785.91,442.596c0,245.991-396.663,445.407-885.972,445.407
	s-885.972-199.416-885.972-445.407c0-128.688,108.558-244.63,282.147-325.942c9.817-19.251,22.139-38.189,36.667-56.412
	c-231.591,86.963-381.525,225.856-381.525,382.354C237.171,1133.829,412.709,1282.55,677.292,1367.179z"/>
<path style="fill:#2581C4;" d="M1342.122,578.117l-0.001-0.005l0.527,0.648c0.425,0.521,0.849,1.043,1.272,1.564l0.579,0.721
	c0.463,0.576,0.924,1.153,1.385,1.73l0.461,0.586c0.492,0.622,0.982,1.245,1.468,1.868l0.361,0.464
	c0.525,0.675,1.049,1.352,1.567,2.029l0.249,0.325c0.552,0.722,1.1,1.444,1.645,2.168l0.17,0.225
	c0.579,0.769,1.152,1.54,1.723,2.312l0.059,0.079c2.34,3.167,4.616,6.353,6.822,9.555c41.235-11.825,85.205-18.475,130.848-18.475
	c76.238,0,147.834,18.562,209.773,48.821c61,29.776,112.678,70.876,150.308,116.756l-0.001-0.004l0.563,0.693
	c0.412,0.504,0.823,1.009,1.231,1.514l0.61,0.76c0.448,0.557,0.895,1.114,1.339,1.674l0.504,0.637
	c0.481,0.609,0.962,1.219,1.438,1.83l0.387,0.498c0.513,0.66,1.024,1.32,1.532,1.982l0.278,0.364
	c0.553,0.722,1.102,1.446,1.648,2.172l0.143,0.189c0.572,0.76,1.14,1.522,1.703,2.284l0.115,0.155
	c35.297,47.766,55.458,99.784,55.458,149.11c0,34.115-9.646,66.78-27.273,96.926c-9.641,157.857-321.661,284.598-705.16,284.598
	c-389.577,0-705.39-130.79-705.39-292.126c0-56.919,39.31-110.034,107.294-154.947c-0.07-0.108-0.139-0.216-0.209-0.324
	c-0.144-0.224-0.29-0.45-0.433-0.674c-0.247-0.384-0.49-0.769-0.734-1.154c-0.127-0.2-0.253-0.399-0.379-0.599
	c-0.334-0.533-0.665-1.068-0.995-1.602c-0.127-0.205-0.251-0.409-0.378-0.615c-0.241-0.394-0.48-0.788-0.72-1.184
	c-0.125-0.208-0.25-0.415-0.374-0.623c-0.278-0.465-0.554-0.93-0.829-1.396c-0.068-0.115-0.136-0.23-0.204-0.345
	c-0.333-0.565-0.661-1.131-0.987-1.698c-0.116-0.202-0.232-0.404-0.347-0.606c-0.221-0.388-0.441-0.777-0.661-1.166
	c-0.123-0.217-0.247-0.436-0.367-0.654c-0.317-0.566-0.631-1.133-0.943-1.701c-0.049-0.09-0.098-0.181-0.147-0.272
	c-0.274-0.499-0.544-1-0.81-1.5c-0.105-0.195-0.21-0.39-0.314-0.586c-0.236-0.448-0.473-0.897-0.708-1.346
	c-0.082-0.156-0.163-0.311-0.245-0.467c-0.299-0.579-0.597-1.159-0.893-1.739c-0.087-0.172-0.172-0.343-0.259-0.515
	c-0.221-0.437-0.438-0.874-0.656-1.311c-0.098-0.199-0.196-0.397-0.294-0.595c-0.235-0.48-0.469-0.961-0.701-1.442
	c-0.06-0.124-0.12-0.247-0.18-0.37c-0.284-0.594-0.565-1.188-0.844-1.783c-0.078-0.164-0.153-0.328-0.23-0.493
	c-0.215-0.465-0.43-0.929-0.643-1.395c-0.076-0.169-0.154-0.34-0.232-0.509c-0.278-0.614-0.553-1.228-0.826-1.844l0,0
	c-0.268-0.61-0.534-1.221-0.795-1.832c-0.072-0.168-0.143-0.335-0.215-0.503c-0.206-0.485-0.41-0.969-0.613-1.455
	c-0.061-0.147-0.124-0.294-0.185-0.442c-0.253-0.612-0.504-1.224-0.75-1.838c-0.048-0.117-0.093-0.233-0.139-0.35
	c-0.203-0.506-0.404-1.013-0.602-1.521c-0.073-0.183-0.143-0.366-0.214-0.549c-0.204-0.527-0.406-1.053-0.605-1.58
	c-0.035-0.091-0.071-0.182-0.103-0.274c-0.237-0.627-0.469-1.255-0.697-1.883c-0.052-0.142-0.102-0.285-0.154-0.427
	c-0.178-0.495-0.355-0.991-0.531-1.487c-0.061-0.173-0.123-0.346-0.182-0.52c-0.218-0.624-0.435-1.248-0.646-1.874
	c-0.198-0.583-0.391-1.167-0.583-1.753c-0.372-1.136-0.731-2.273-1.081-3.413c-0.524-1.711-1.024-3.427-1.499-5.148
	c-0.475-1.722-0.926-3.449-1.351-5.182c-0.218-0.886-0.427-1.773-0.632-2.662l-0.188-0.826c-2.923-12.996-4.439-26.287-4.439-39.805
	l0.004-0.638c0.12-33.753,9.625-68.707,26.988-102.727l0.026-0.05c-173.589,81.313-282.147,197.254-282.147,325.942
	c0,245.991,396.663,445.407,885.972,445.407s885.972-199.416,885.972-445.407c0-228.984-343.71-417.607-785.91-442.596
	C1307.015,539.398,1325.877,558.312,1342.122,578.117z"/>
<path style="fill:#2452A1;" d="M677.292,1367.179c113.263,71.219,298.84,117.647,508.562,117.647
	c209.724,0,395.302-46.428,508.564-117.648c-146.983,47.015-321.446,74.251-508.564,74.251
	C998.736,1441.43,824.274,1414.193,677.292,1367.179z"/>
<path style="fill:#2452A1;" d="M1830.147,1080.72c-0.003,0.003-0.007,0.006-0.011,0.009c-0.494,0.415-0.99,0.828-1.488,1.242
	c-0.033,0.027-0.065,0.054-0.098,0.08c-0.484,0.402-0.969,0.802-1.457,1.202c-0.037,0.03-0.074,0.06-0.109,0.089
	c-0.495,0.406-0.994,0.811-1.494,1.215c-0.007,0.007-0.016,0.013-0.023,0.02c-0.496,0.401-0.992,0.8-1.49,1.198
	c-0.099,0.079-0.2,0.159-0.3,0.239c-0.446,0.355-0.891,0.709-1.338,1.062c-0.032,0.026-0.066,0.052-0.099,0.079
	c-2.078,1.64-4.184,3.264-6.32,4.873c-0.022,0.016-0.043,0.033-0.065,0.05c-0.519,0.391-1.04,0.78-1.563,1.169
	c-0.029,0.022-0.059,0.044-0.088,0.066c-0.448,0.333-0.899,0.666-1.348,0.997c-0.139,0.101-0.276,0.203-0.414,0.305
	c-0.387,0.283-0.774,0.566-1.16,0.848c-0.198,0.144-0.398,0.289-0.595,0.433c-0.374,0.272-0.75,0.543-1.127,0.814
	c-0.206,0.148-0.412,0.296-0.617,0.443c-0.357,0.256-0.715,0.511-1.073,0.765c-0.24,0.171-0.48,0.341-0.719,0.511
	c-0.333,0.235-0.665,0.47-0.999,0.704c-0.266,0.187-0.531,0.373-0.798,0.559c-0.339,0.238-0.68,0.475-1.02,0.711
	c-0.226,0.157-0.452,0.313-0.678,0.47c-0.364,0.25-0.726,0.501-1.09,0.751c-0.231,0.158-0.464,0.316-0.695,0.474
	c-0.37,0.253-0.741,0.507-1.112,0.759c-0.24,0.162-0.48,0.323-0.719,0.485c-0.349,0.234-0.696,0.469-1.045,0.703
	c-0.598,0.401-1.2,0.801-1.802,1.199c-58.47,38.676-134.46,66.305-219.717,77.566c-1.792,0.236-3.587,0.466-5.387,0.688
	l-0.631,0.076c-0.711,0.087-1.421,0.173-2.133,0.258c-1.686,0.201-3.375,0.395-5.069,0.583l-0.045,0.005l-0.497,0.054
	c-2.469,0.272-4.946,0.532-7.43,0.776l-0.998,0.097c-1.435,0.139-2.873,0.274-4.313,0.404l-0.946,0.083
	c-2.348,0.208-4.703,0.405-7.063,0.589l-0.544,0.041c-1.603,0.123-3.207,0.241-4.815,0.354c-0.734,0.051-1.469,0.1-2.205,0.148
	l-0.485,0.033c-14.356,0.939-28.923,1.421-43.664,1.421c-33.918,0-66.913-2.548-98.549-7.362c-2.131,1.65-4.293,3.283-6.481,4.9
	c-0.03,0.021-0.058,0.043-0.087,0.064c-0.523,0.387-1.049,0.772-1.574,1.157c-0.056,0.041-0.112,0.081-0.168,0.122
	c-0.526,0.383-1.053,0.765-1.581,1.147c-0.051,0.036-0.101,0.073-0.151,0.109c-0.504,0.363-1.009,0.725-1.516,1.086
	c-0.101,0.073-0.203,0.144-0.304,0.216c-0.479,0.341-0.96,0.681-1.442,1.021c-0.116,0.082-0.232,0.163-0.349,0.244
	c-0.458,0.322-0.918,0.644-1.378,0.964c-0.155,0.108-0.312,0.216-0.469,0.325c-0.444,0.309-0.891,0.616-1.337,0.924
	c-0.148,0.102-0.298,0.205-0.447,0.307c-0.444,0.304-0.888,0.607-1.335,0.91c-0.174,0.118-0.349,0.236-0.523,0.355
	c-0.438,0.296-0.876,0.592-1.316,0.886c-0.158,0.106-0.316,0.212-0.475,0.318c-0.445,0.298-0.89,0.595-1.339,0.891
	c-0.205,0.137-0.412,0.273-0.619,0.409c-0.394,0.26-0.789,0.521-1.185,0.78c-0.298,0.196-0.598,0.39-0.898,0.585
	c-0.321,0.209-0.643,0.419-0.965,0.627c-0.279,0.181-0.56,0.36-0.841,0.54c-0.355,0.229-0.711,0.458-1.068,0.687
	c-0.618,0.394-1.238,0.788-1.859,1.18l-1.369,0.859c-2.122,1.326-4.265,2.639-6.43,3.938c-0.721,0.433-1.445,0.864-2.171,1.294
	c-76.021,44.985-177.429,72.447-288.794,72.447c-70.643,0-137.278-11.051-195.97-30.614c-1.376-0.459-2.747-0.923-4.114-1.39
	c-0.732-0.251-1.463-0.503-2.192-0.756c-1.783-0.619-3.559-1.244-5.325-1.879c-1.14-0.409-2.277-0.822-3.41-1.238
	c-2.741-1.006-5.464-2.031-8.165-3.075c-0.839-0.323-1.675-0.649-2.508-0.976c-1.082-0.424-2.159-0.849-3.233-1.28
	c-0.537-0.214-1.07-0.43-1.604-0.645c-93.854-37.906-163.192-98.667-189.225-170.168c-0.298-0.819-0.592-1.64-0.88-2.462
	c-0.21-0.602-0.417-1.205-0.621-1.809c-0.197-0.583-0.391-1.167-0.583-1.753c-0.372-1.135-0.731-2.272-1.081-3.413
	c-0.524-1.711-1.024-3.427-1.499-5.148c-0.475-1.721-0.926-3.449-1.351-5.181c-0.218-0.886-0.427-1.773-0.632-2.662l-0.187-0.825
	c-2.924-12.996-4.439-26.286-4.439-39.805l0.004-0.638c0.003-0.436,0.007-0.871,0.013-1.307
	c0.296-27.523,6.799-55.824,18.702-83.751c-0.142-0.108-0.282-0.216-0.422-0.325c-0.634-0.484-1.266-0.969-1.895-1.457
	c-0.321-0.248-0.641-0.498-0.962-0.748c-0.458-0.359-0.918-0.717-1.376-1.078c-0.343-0.271-0.686-0.541-1.028-0.813
	c-0.463-0.369-0.926-0.738-1.386-1.108c-0.311-0.249-0.621-0.497-0.93-0.746c-0.722-0.583-1.439-1.168-2.154-1.755
	c-0.253-0.208-0.504-0.417-0.754-0.625c-0.519-0.428-1.036-0.857-1.55-1.287c-0.298-0.249-0.594-0.499-0.89-0.749
	c-0.451-0.379-0.899-0.76-1.347-1.141c-0.312-0.266-0.625-0.533-0.935-0.799c-0.507-0.435-1.012-0.872-1.514-1.309
	c-0.229-0.198-0.457-0.394-0.685-0.593c-0.696-0.608-1.388-1.218-2.076-1.83c-0.278-0.247-0.552-0.494-0.828-0.741
	c-0.456-0.409-0.912-0.818-1.366-1.229c-0.284-0.257-0.568-0.515-0.851-0.774c-0.448-0.409-0.893-0.818-1.337-1.228
	c-0.274-0.252-0.546-0.504-0.819-0.756c-0.522-0.485-1.04-0.972-1.556-1.459c-0.282-0.264-0.562-0.529-0.842-0.794
	c-0.567-0.538-1.132-1.076-1.691-1.618c-0.258-0.248-0.512-0.496-0.768-0.745c-0.435-0.421-0.867-0.843-1.298-1.266
	c-0.272-0.269-0.544-0.537-0.817-0.807c-0.437-0.433-0.871-0.867-1.306-1.301c-0.234-0.235-0.47-0.471-0.704-0.706
	c-0.651-0.657-1.299-1.315-1.941-1.976c-0.132-0.135-0.262-0.272-0.394-0.407c-0.528-0.546-1.054-1.093-1.578-1.642
	c-0.225-0.235-0.447-0.471-0.67-0.706c-0.424-0.448-0.847-0.898-1.268-1.347c-0.251-0.268-0.503-0.538-0.752-0.807
	c-0.435-0.467-0.865-0.936-1.294-1.405c-0.199-0.216-0.398-0.432-0.594-0.648c-0.611-0.67-1.217-1.344-1.819-2.019
	c-0.182-0.205-0.363-0.411-0.546-0.616c-0.437-0.492-0.87-0.985-1.303-1.48c-0.225-0.258-0.45-0.516-0.673-0.774
	c-0.403-0.464-0.803-0.929-1.201-1.395c-0.212-0.247-0.424-0.493-0.634-0.741c-0.5-0.588-0.997-1.178-1.49-1.769
	c-0.095-0.114-0.192-0.228-0.287-0.342c-0.587-0.706-1.167-1.413-1.746-2.122c-0.163-0.202-0.326-0.405-0.49-0.607
	c-0.416-0.512-0.828-1.025-1.238-1.539c-0.195-0.244-0.389-0.489-0.583-0.734c-0.407-0.515-0.813-1.031-1.214-1.548
	c-0.169-0.217-0.339-0.433-0.507-0.65c-0.56-0.723-1.114-1.446-1.662-2.173c-0.022-0.028-0.042-0.056-0.063-0.084
	c-0.525-0.694-1.044-1.39-1.561-2.087c-0.164-0.222-0.327-0.446-0.49-0.668c-0.381-0.519-0.76-1.038-1.136-1.558
	c-0.174-0.239-0.346-0.479-0.519-0.719c-0.415-0.58-0.828-1.16-1.238-1.741c-0.109-0.156-0.221-0.312-0.33-0.468
	c-0.524-0.748-1.044-1.499-1.559-2.251c-0.082-0.12-0.162-0.241-0.244-0.361c-0.428-0.628-0.853-1.257-1.273-1.888
	c-0.141-0.21-0.281-0.421-0.421-0.632c-0.379-0.572-0.755-1.145-1.128-1.719c-0.079-0.123-0.162-0.245-0.241-0.367
	c-67.985,44.913-107.294,98.028-107.294,154.947c0,161.337,315.813,292.126,705.39,292.126
	c383.499,0,695.519-126.741,705.16-284.598C1876.103,1035.774,1855.477,1059.471,1830.147,1080.72z"/>
<path style="fill:#EF982E;" d="M582.003,638.603c-1.516,16.195-0.473,32.484,3.883,48.395c8.144,29.785,27.417,55.593,50.195,76.475
	c18.276,16.715,42.048,31.49,66.389,26.802c30.684-5.872,50.525-40.392,81.589-43.66c8.525-0.909,16.618,0.632,24.35,3.713
	c-57.994,36.679-104.563,83.749-134.406,133.849c-3.498,5.871-6.769,11.784-9.799,17.727c-1.516,16.194-0.472,32.484,3.884,48.394
	c8.145,29.785,27.417,55.593,50.194,76.475c18.278,16.715,42.05,31.49,66.389,26.802c30.686-5.872,50.525-40.392,81.589-43.659
	c26.186-2.794,48.3,17.521,68.377,34.615c21.498,18.326,44.938,34.473,69.703,48.11c20.363,11.175,44.087,20.836,66.2,13.78
	c22.399-7.151,36.225-29.312,45.695-50.858c9.424-21.546,17.048-44.985,34.189-61.085c33.763-31.585,89.403-22.209,129.559-45.175
	c25.807-14.727,42.949-42.286,48.348-71.503s-0.095-59.759-11.933-86.987c-10.511-24.103-25.664-45.743-42.38-66.152
	c5.979,2.918,11.868,5.947,17.663,9.077c-0.176-1.005-0.328-2.012-0.455-3.024l-0.048-0.381l-0.09-0.804l-0.051-0.502l-0.073-0.808
	l-0.04-0.489l-0.057-0.799l-0.028-0.516l-0.041-0.798l-0.016-0.499l-0.025-0.813l-0.006-0.397l-0.009-0.87
	c0-32.087,24.993-60.97,64.873-81.096c3.067-1.548,6.222-3.044,9.462-4.486c0.926-0.412,1.857-0.819,2.797-1.223
	c0.939-0.403,1.885-0.802,2.837-1.195c0.952-0.394,1.91-0.784,2.878-1.168c1.448-0.578,2.91-1.145,4.388-1.701
	c1.476-0.556,2.967-1.102,4.472-1.637c1.004-0.357,2.013-0.708,3.029-1.055c1.016-0.347,2.037-0.689,3.066-1.027
	c1.028-0.337,2.06-0.669,3.101-0.997c6.237-1.964,12.684-3.75,19.318-5.344c2.048-0.492,4.115-0.966,6.199-1.421
	c4.167-0.911,8.404-1.746,12.703-2.505c2.149-0.379,4.316-0.739,6.496-1.079c6.542-1.02,13.22-1.862,20.016-2.517
	c2.266-0.218,4.543-0.415,6.835-0.592c9.163-0.704,18.524-1.068,28.041-1.068s18.877,0.364,28.041,1.068
	c2.292,0.177,4.57,0.374,6.835,0.592c6.795,0.655,13.474,1.497,20.016,2.517c2.18,0.34,4.347,0.7,6.496,1.079
	c4.299,0.759,8.535,1.594,12.703,2.505c2.083,0.455,4.151,0.929,6.199,1.421c2.98,0.716,5.922,1.47,8.825,2.262
	c1.45,0.396,2.891,0.802,4.322,1.216c1.43,0.415,2.851,0.838,4.261,1.271c2.82,0.866,5.599,1.768,8.333,2.705
	c0.683,0.235,1.364,0.471,2.043,0.71c4.746,1.671,9.354,3.449,13.815,5.327c1.275,0.537,2.537,1.082,3.787,1.635
	c0.626,0.276,1.247,0.555,1.867,0.835c1.548,0.702,3.074,1.416,4.582,2.141c1.509,0.726,2.996,1.464,4.464,2.214
	c1.759,0.9,3.492,1.817,5.192,2.751c1.135,0.623,2.254,1.253,3.361,1.89c1.66,0.956,3.289,1.929,4.886,2.917
	c1.064,0.659,2.115,1.325,3.151,1.997c1.553,1.01,3.074,2.035,4.563,3.075c0.993,0.693,1.969,1.393,2.932,2.099
	c0.963,0.707,1.909,1.42,2.841,2.14l1.386,1.084c1.376,1.089,2.714,2.192,4.019,3.309c0.869,0.744,1.722,1.495,2.56,2.252
	c0.836,0.757,1.658,1.519,2.462,2.288c3.219,3.075,6.177,6.242,8.854,9.494c0.669,0.813,1.321,1.631,1.954,2.454
	c0.635,0.824,1.252,1.652,1.85,2.486c4.871,6.783,8.548,13.896,10.894,21.261l0.049,0.156l0.379,1.239l0.069,0.238l0.324,1.152
	l0.087,0.328l0.27,1.056l0.103,0.42l0.226,0.981l0.105,0.474l0.193,0.935l0.101,0.513l0.167,0.914l0.092,0.527l0.143,0.909
	l0.08,0.53l0.121,0.911l0.07,0.544l0.099,0.909l0.056,0.535l0.078,0.912l0.045,0.554l0.055,0.901l0.031,0.554l0.035,0.959
	l0.018,0.504l0.018,1.459l-0.015,1.34l-0.014,0.433l-0.031,0.893l-0.026,0.533l-0.046,0.803l-0.04,0.558l-0.061,0.755l-0.053,0.596
	l-0.075,0.718l-0.07,0.623l-0.081,0.649l-0.087,0.667l-0.103,0.683l-0.212,1.303l-0.089,0.508l-0.143,0.751l-0.108,0.549
	l-0.157,0.744l-0.114,0.518l-0.182,0.789l-0.109,0.451l-0.205,0.819l-0.108,0.401l-0.243,0.892l-0.005,0.017
	c-0.115,0.406-0.233,0.81-0.356,1.215c-0.023,0.074-0.046,0.147-0.069,0.221c-0.094,0.304-0.187,0.609-0.284,0.912
	c0-0.001,0-0.002,0-0.003c-16.647,51.589-98.702,90.77-197.422,90.77c-0.784,0-1.567-0.003-2.35-0.008l-0.91-0.008
	c-0.528-0.005-1.058-0.01-1.588-0.017l-0.79-0.012c-0.546-0.008-1.091-0.017-1.636-0.028l-0.844-0.017
	c-0.545-0.012-1.088-0.026-1.633-0.04l-0.789-0.021c-0.697-0.02-1.393-0.041-2.089-0.065l-0.277-0.009
	c-0.781-0.027-1.564-0.057-2.345-0.09l-0.849-0.037l-1.476-0.068l-1.009-0.05l-1.368-0.071l-1.018-0.057l-1.307-0.077l-1.054-0.065
	c-0.526-0.033-1.05-0.069-1.572-0.105l-0.717-0.048c-0.746-0.052-1.491-0.107-2.234-0.163l-0.962-0.076l-1.334-0.108l-1.045-0.089
	l-1.266-0.111l-1.079-0.098l-1.191-0.113l-1.121-0.108l-1.054-0.107c-1.542-0.157-3.078-0.325-4.607-0.502l-0.904-0.105l-1.323-0.16
	l-0.848-0.105l-1.389-0.176l-0.784-0.102l-1.424-0.189l-0.554-0.076c-1.85-0.254-3.689-0.521-5.517-0.803l-0.087-0.013
	c-0.607-0.094-1.214-0.19-1.819-0.287l-0.246-0.039c-0.607-0.098-1.212-0.197-1.815-0.297l-0.184-0.031
	c-0.618-0.103-1.235-0.208-1.851-0.314l-0.059-0.01c-7.66-1.325-15.124-2.896-22.358-4.695c5.491,5.918,10.745,11.935,15.751,18.037
	l-0.003-0.006l0.729,0.897l1.015,1.246l0.795,0.99l1.14,1.426l0.694,0.879c0.421,0.533,0.84,1.066,1.257,1.6l0.51,0.655
	c0.475,0.611,0.948,1.224,1.418,1.836l0.383,0.501c0.52,0.68,1.036,1.36,1.55,2.042l0.213,0.282
	c0.554,0.737,1.104,1.475,1.652,2.213l0.155,0.211c35.287,47.758,55.439,99.767,55.439,149.084c0,3.628-0.11,7.239-0.327,10.833
	c2.217-0.386,4.422-0.917,6.611-1.616c22.398-7.15,36.224-29.311,45.695-50.857c9.423-21.546,17.047-44.986,34.189-61.086
	c33.763-31.584,89.403-22.208,129.559-45.174c25.806-14.727,42.948-42.287,48.347-71.503c5.399-29.217-0.094-59.76-11.933-86.987
	c-10.512-24.103-25.664-45.743-42.38-66.152c-61.939-30.259-133.535-48.821-209.773-48.821c-45.643,0-89.613,6.65-130.848,18.475
	l-0.003,0.001c-3.327,0.954-6.634,1.944-9.926,2.965c-48.538,15.056-93.081,37.273-131.841,64.173
	c14.201-14.987,23.714-34.601,27.487-55.026c5.4-29.217-0.094-59.759-11.932-86.987c-10.513-24.103-25.666-45.743-42.382-66.152
	c-61.937-30.259-133.534-48.821-209.773-48.821c-153.504,0-288.079,75.201-363.344,169.602
	c-14.529,18.222-26.85,37.161-36.667,56.412L582.003,638.603z"/>
<path style="fill:#DE891A;" d="M655.508,919.248c0.141,0.108,0.28,0.217,0.422,0.325c-11.902,27.926-18.406,56.228-18.702,83.751
	c0.021-1.252,0.055-2.506,0.095-3.759c3.62,14.713,8.765,29.092,15.177,43.023c13.645,29.644,35.326,55.44,60.284,76.234
	c25.175,20.976,55,37.291,87.13,44.403c28.768,6.368,57.729,3.917,84.203-9.299c18.628-9.3,36.727-25.522,58.324-26.849
	c12.979-0.797,25.681,4.49,36.605,11.022c14.944,8.934,28.699,19.903,43.041,29.75c26.269,18.035,55.736,35.276,88.74,33.324
	c32.153-1.901,62.346-22.346,79.392-49.11c15.206-23.879,22.611-51.768,37.743-75.639c7.151-11.282,16.325-21.748,28.807-27.152
	c15.929-6.898,34.007-5.48,50.794-3.392c26.757,3.328,53.799,8.439,80.089-0.291c35.275-11.714,51.547-45.755,55.124-80.63
	c4.265-41.558-5.132-84.307-18.452-123.539c-5.006-6.102-10.26-12.12-15.751-18.037l-0.006-0.006
	c-17.68-19.055-37.824-37.072-60.055-53.539c-16.367-12.123-33.866-23.406-52.351-33.643c-1.488-0.824-2.981-1.643-4.481-2.454
	h-0.002c-5.795-3.13-11.684-6.159-17.663-9.077c16.716,20.409,31.869,42.049,42.38,66.152c11.838,27.228,17.332,57.77,11.933,86.987
	s-22.54,56.776-48.348,71.503c-40.155,22.966-95.796,13.59-129.559,45.175c-17.141,16.1-24.765,39.539-34.189,61.085
	c-9.47,21.546-23.296,43.707-45.695,50.858c-22.113,7.055-45.836-2.605-66.2-13.78c-24.765-13.637-48.205-29.785-69.703-48.11
	c-20.077-17.094-42.191-37.409-68.377-34.615c-31.064,3.267-50.903,37.788-81.589,43.659c-24.339,4.688-48.111-10.087-66.389-26.802
	c-22.777-20.883-42.049-46.69-50.194-76.475c-4.356-15.91-5.4-32.2-3.884-48.394c-2.994,5.865-5.754,11.758-8.273,17.669
	C655.789,919.465,655.649,919.357,655.508,919.248z"/>
<path style="fill:#D86C12;" d="M1862.828,764.236l-0.115-0.155c-0.564-0.762-1.132-1.524-1.703-2.284l-0.143-0.189
	c-0.546-0.725-1.094-1.449-1.648-2.172l-0.278-0.364c-0.508-0.662-1.019-1.323-1.532-1.982l-0.387-0.498
	c-0.476-0.611-0.957-1.22-1.438-1.83l-0.504-0.637c-0.444-0.56-0.891-1.117-1.339-1.674l-0.61-0.76
	c-0.408-0.505-0.819-1.01-1.231-1.514l-0.563-0.693l0.001,0.004c13.322,39.233,22.719,81.982,18.453,123.541
	c-3.577,34.875-19.849,68.916-55.124,80.629c-26.288,8.73-53.332,3.619-80.089,0.291c-16.786-2.088-34.865-3.505-50.794,3.392
	c-12.482,5.405-21.656,15.871-28.806,27.153c-15.132,23.871-22.538,51.76-37.745,75.639c-17.044,26.765-47.237,47.209-79.391,49.11
	c-23.714,1.402-45.604-7.106-65.793-18.696c-0.35-0.522-0.692-0.99-1.011-1.401c13.128-26.444,20.215-54.627,20.215-83.878
	c0-49.313-20.147-101.319-55.424-149.077l-0.155-0.211c-0.547-0.739-1.098-1.476-1.652-2.213l-0.213-0.282
	c-0.514-0.682-1.03-1.362-1.55-2.042l-0.383-0.501c-0.471-0.612-0.943-1.225-1.418-1.836l-0.51-0.655
	c-0.417-0.534-0.836-1.067-1.257-1.6l-0.694-0.879l-1.14-1.426l-0.795-0.99l-1.015-1.246l-0.729-0.897l0.003,0.006
	c13.321,39.232,22.717,81.981,18.452,123.539c-3.578,34.875-19.849,68.916-55.124,80.63c-26.289,8.729-53.332,3.618-80.089,0.291
	c-16.787-2.088-34.865-3.505-50.794,3.392c-12.482,5.404-21.656,15.87-28.807,27.152c-15.132,23.871-22.538,51.76-37.743,75.639
	c-17.046,26.764-47.238,47.209-79.392,49.11c-33.004,1.952-62.471-15.289-88.74-33.324c-14.342-9.847-28.097-20.816-43.041-29.75
	c-10.924-6.532-23.626-11.819-36.605-11.022c-21.598,1.327-39.696,17.55-58.324,26.849c-26.474,13.216-55.435,15.667-84.203,9.299
	c-32.13-7.112-61.955-23.427-87.13-44.403c-24.958-20.793-46.639-46.59-60.284-76.234c-6.413-13.931-11.558-28.31-15.177-43.023
	c-0.041,1.254-0.075,2.508-0.095,3.759c-0.007,0.436-0.011,0.872-0.013,1.307l-0.004,0.638c0,13.519,1.516,26.809,4.439,39.805
	l0.187,0.825c0.205,0.889,0.414,1.776,0.632,2.662c0.425,1.732,0.876,3.46,1.351,5.181c0.475,1.722,0.975,3.438,1.499,5.148
	c0.35,1.141,0.709,2.278,1.081,3.413c0.192,0.585,0.385,1.169,0.583,1.753c0.204,0.604,0.411,1.207,0.621,1.809
	c0.287,0.822,0.581,1.643,0.88,2.462c26.036,71.505,95.376,132.263,189.225,170.168c0.534,0.216,1.068,0.432,1.604,0.645
	c1.074,0.43,2.151,0.856,3.233,1.28c0.833,0.327,1.669,0.653,2.508,0.976c2.701,1.044,5.424,2.069,8.165,3.075
	c1.133,0.416,2.27,0.828,3.41,1.238c1.766,0.634,3.542,1.26,5.325,1.879c0.73,0.253,1.46,0.505,2.192,0.756
	c1.367,0.467,2.739,0.931,4.114,1.39c58.692,19.563,125.327,30.614,195.97,30.614c111.365,0,212.773-27.462,288.794-72.447
	c0.726-0.43,1.45-0.861,2.171-1.294c2.165-1.299,4.308-2.612,6.43-3.938l1.369-0.859c0.621-0.392,1.241-0.785,1.859-1.18
	c0.357-0.229,0.712-0.458,1.068-0.687c0.281-0.18,0.561-0.359,0.841-0.54c0.322-0.209,0.644-0.418,0.965-0.627
	c0.3-0.195,0.599-0.389,0.898-0.585c0.396-0.259,0.791-0.52,1.185-0.78c0.207-0.136,0.414-0.272,0.619-0.409
	c0.448-0.296,0.894-0.594,1.339-0.891c0.16-0.106,0.317-0.212,0.475-0.318c0.44-0.294,0.877-0.59,1.316-0.886l0.523-0.355
	c0.447-0.302,0.891-0.606,1.335-0.91c0.148-0.102,0.298-0.205,0.447-0.307c0.446-0.307,0.893-0.615,1.337-0.924
	c0.157-0.109,0.314-0.217,0.469-0.325c0.46-0.321,0.92-0.643,1.378-0.964c0.117-0.082,0.233-0.163,0.349-0.244
	c0.482-0.339,0.963-0.679,1.442-1.021c0.101-0.072,0.203-0.144,0.304-0.216c0.507-0.361,1.011-0.722,1.516-1.086
	c0.05-0.036,0.1-0.073,0.151-0.109c0.528-0.381,1.055-0.764,1.581-1.147c0.056-0.041,0.111-0.081,0.168-0.122
	c0.526-0.385,1.051-0.77,1.574-1.157c0.029-0.021,0.057-0.043,0.087-0.064c2.19-1.617,4.349-3.252,6.479-4.902l0.002,0.002
	c31.636,4.814,64.631,7.362,98.549,7.362c14.741,0,29.308-0.481,43.664-1.421l0.485-0.033c0.736-0.048,1.471-0.098,2.205-0.148
	c1.608-0.112,3.212-0.23,4.815-0.354l0.544-0.041c2.36-0.184,4.715-0.38,7.063-0.589l0.946-0.083c1.44-0.13,2.878-0.266,4.313-0.404
	l0.998-0.097c2.484-0.244,4.961-0.504,7.43-0.776l0.497-0.054l0.045-0.005c1.694-0.188,3.382-0.383,5.069-0.583
	c0.712-0.085,1.423-0.171,2.133-0.258l0.631-0.076c1.8-0.223,3.595-0.452,5.387-0.688c85.257-11.262,161.247-38.891,219.717-77.566
	c0.602-0.398,1.204-0.798,1.802-1.199c0.349-0.234,0.696-0.469,1.045-0.703c0.239-0.162,0.479-0.323,0.719-0.485
	c0.371-0.252,0.742-0.505,1.112-0.759c0.231-0.158,0.464-0.316,0.695-0.474c0.363-0.25,0.727-0.501,1.09-0.751
	c0.226-0.157,0.452-0.313,0.678-0.47c0.34-0.236,0.681-0.474,1.02-0.711c0.267-0.186,0.532-0.372,0.798-0.559
	c0.334-0.234,0.666-0.469,0.999-0.704c0.239-0.17,0.479-0.34,0.719-0.511c0.358-0.254,0.716-0.509,1.073-0.765
	c0.205-0.147,0.411-0.296,0.617-0.443c0.375-0.271,0.753-0.542,1.127-0.814c0.197-0.144,0.397-0.288,0.595-0.433
	c0.387-0.282,0.774-0.565,1.16-0.848c0.138-0.102,0.275-0.204,0.414-0.305c0.45-0.332,0.9-0.664,1.348-0.997
	c0.029-0.022,0.059-0.044,0.088-0.066c0.523-0.389,1.044-0.778,1.563-1.169c0.022-0.016,0.044-0.034,0.065-0.05
	c2.136-1.609,4.242-3.233,6.32-4.873c0.033-0.026,0.067-0.052,0.099-0.079c0.447-0.353,0.892-0.707,1.338-1.062
	c0.099-0.08,0.2-0.16,0.3-0.239c0.498-0.398,0.994-0.798,1.49-1.198c0.007-0.006,0.016-0.013,0.023-0.02
	c0.5-0.404,0.998-0.809,1.494-1.215c0.036-0.03,0.073-0.06,0.109-0.089c0.488-0.399,0.973-0.8,1.457-1.202l0.098-0.08
	c0.498-0.413,0.994-0.827,1.488-1.242c0.005-0.003,0.008-0.006,0.011-0.009c55.271-46.367,88.126-104.402,88.126-167.381
	C1918.273,864.018,1898.116,812.001,1862.828,764.236z"/>
<path style="fill:#C96615;" d="M781.554,553.438l0.032,0.895l0.026,0.53l0.046,0.807l0.04,0.556l0.061,0.755l0.053,0.595
	l0.079,0.763l0.06,0.542l0.106,0.837l0.066,0.496l0.188,1.253l0.091,0.534l0.133,0.769l0.12,0.626l0.129,0.657l0.142,0.675
	l0.133,0.604l0.161,0.695l0.139,0.576l0.182,0.723l0.131,0.492l0.218,0.802l0.071,0.246c0.098,0.34,0.197,0.679,0.3,1.017
	c0.069,0.229,0.141,0.458,0.214,0.687c0.03,0.094,0.059,0.187,0.089,0.281c0.016,0.053,0.032,0.105,0.049,0.158
	c0-0.001,0.002-0.002,0.002-0.004c16.649-51.586,98.703-90.763,197.419-90.763c60.718,0,115.131,14.822,151.9,38.236
	c23.012,14.654,39.113,32.673,45.522,52.531c0.23-0.712,0.445-1.427,0.65-2.143l0.072-0.246l0.218-0.802l0.13-0.492l0.182-0.723
	l0.141-0.576l0.161-0.695l0.132-0.604l0.143-0.675l0.128-0.657l0.12-0.626l0.147-0.843l0.075-0.443l0.191-1.27l0.065-0.496
	l0.106-0.837l0.059-0.542l0.08-0.763l0.053-0.595l0.061-0.755l0.039-0.556l0.046-0.807l0.027-0.53l0.03-0.895l0.013-0.432
	l0.015-1.34l-0.017-1.459l-0.018-0.504l-0.034-0.959l-0.033-0.555l-0.054-0.901l-0.045-0.554l-0.078-0.913l-0.056-0.536l-0.1-0.909
	l-0.068-0.543l-0.122-0.911l-0.079-0.531l-0.144-0.909l-0.091-0.527l-0.168-0.914l-0.1-0.513l-0.194-0.934l-0.103-0.474
	l-0.228-0.981l-0.102-0.421l-0.271-1.055l-0.089-0.328l-0.322-1.152l-0.07-0.239l-0.379-1.239l-0.049-0.156l-0.451-1.363
	l-0.005-0.018c-17.49-51.019-99.056-89.615-197.038-89.615c-5.191,0-10.336,0.108-15.428,0.321
	c-4.242,0.177-8.449,0.427-12.613,0.747c-1.002,0.077-2.002,0.158-2.999,0.243c-1.995,0.17-3.981,0.356-5.955,0.559
	c-0.987,0.101-1.973,0.206-2.955,0.316c-38.309,4.253-72.66,14.504-99.66,28.891c-1.385,0.737-2.751,1.487-4.096,2.246
	c-2.691,1.519-5.303,3.079-7.833,4.682c-0.632,0.4-1.258,0.803-1.88,1.209c-1.243,0.811-2.466,1.632-3.667,2.463
	c-1.203,0.831-2.383,1.671-3.541,2.521c-1.157,0.849-2.294,1.709-3.409,2.577c-4.457,3.474-8.556,7.097-12.27,10.851l-1.145,1.175
	c-1.888,1.965-3.67,3.964-5.344,5.996c-3.011,3.659-5.67,7.423-7.95,11.282l-0.746,1.29c-0.489,0.862-0.958,1.728-1.408,2.599
	c-4.955,9.58-7.607,19.692-7.607,30.144l0.015,1.34L781.554,553.438z"/>
<path style="fill:#DE891A;" d="M555.123,736.263c3.621,14.712,8.766,29.092,15.179,43.023c13.645,29.644,35.326,55.44,60.284,76.233
	c13.291,11.075,27.878,20.849,43.418,28.657c29.844-50.1,76.413-97.171,134.406-133.849c-7.732-3.081-15.826-4.622-24.35-3.713
	c-31.064,3.268-50.905,37.788-81.589,43.66c-24.34,4.688-48.112-10.086-66.389-26.802c-22.777-20.883-42.051-46.69-50.195-76.475
	c-4.356-15.91-5.399-32.2-3.883-48.395c-17.363,34.02-26.868,68.974-26.988,102.727
	C555.024,739.645,555.069,737.955,555.123,736.263z"/>
<path style="fill:#BB1818;" d="M1382.249,770.29c3.17,3.818,5.416,8.101,8.984,11.643c4.133,4.105,9.357,7.629,14.992,9.256
	c10,2.888,18.634-1.541,25.923-8.175c7.517-6.844,14.248-14.857,24.58-17.313c11.701-2.782,19.822,5.221,27.586,12.773
	c9.83,9.562,20.807,18.073,34.451,21.222c13.935,3.216,27.538-0.804,38.445-9.868c10.897-9.055,16.154-20.262,17.762-34.176
	c1.201-10.393,0.679-23.317,9.085-31.028c6.677-6.126,17.249-4.93,25.611-5.27c10.14-0.413,20.21-2.561,26.593-11.214
	c3.829-5.191,6.025-11.614,6.888-18.291c-36.768-23.414-91.18-38.236-151.899-38.236c-94.732,0-174.116,36.077-195.087,84.578
	c18.485,10.238,35.984,21.52,52.351,33.643c0.771-0.149,1.546-0.311,2.326-0.491C1359.765,767.284,1375.147,761.736,1382.249,770.29
	z"/>
<path style="fill:#AD1917;" d="M1643.148,689.851c-0.863,6.677-3.059,13.1-6.888,18.291c-6.383,8.653-16.453,10.801-26.593,11.214
	c-8.362,0.34-18.934-0.856-25.611,5.27c-8.405,7.711-7.883,20.635-9.085,31.028c-1.608,13.914-6.865,25.121-17.762,34.176
	c-10.906,9.064-24.509,13.084-38.445,9.868c-13.644-3.149-24.62-11.66-34.451-21.222c-7.764-7.552-15.885-15.555-27.586-12.773
	c-10.332,2.456-17.063,10.469-24.58,17.313c-7.29,6.634-15.923,11.063-25.923,8.175c-5.635-1.627-10.859-5.152-14.992-9.256
	c-3.568-3.543-5.813-7.826-8.984-11.643c-7.102-8.554-22.483-3.005-31.409-0.945c-0.78,0.18-1.555,0.343-2.326,0.491
	c22.231,16.468,42.375,34.484,60.055,53.539c7.237,1.802,14.699,3.375,22.364,4.702l0.059,0.01c0.616,0.107,1.233,0.211,1.851,0.314
	l0.184,0.031c0.603,0.1,1.208,0.2,1.815,0.297l0.246,0.039c0.604,0.097,1.211,0.193,1.819,0.287l0.087,0.013
	c1.828,0.282,3.667,0.549,5.517,0.803l0.554,0.076l1.424,0.189l0.784,0.102l1.389,0.176l0.848,0.105l1.323,0.16l0.904,0.105
	c1.529,0.177,3.065,0.344,4.607,0.502l1.054,0.107l1.121,0.108l1.191,0.113l1.079,0.098l1.266,0.111l1.045,0.089l1.334,0.108
	l0.962,0.076c0.744,0.057,1.488,0.111,2.234,0.163l0.717,0.048c0.523,0.036,1.047,0.071,1.572,0.105l1.054,0.065l1.307,0.077
	l1.018,0.057l1.368,0.071l1.009,0.05l1.476,0.068l0.849,0.037c0.781,0.032,1.564,0.063,2.345,0.09l0.277,0.009
	c0.696,0.024,1.392,0.046,2.089,0.065l0.789,0.021c0.544,0.014,1.088,0.028,1.633,0.04l0.844,0.017
	c0.545,0.011,1.09,0.02,1.636,0.028l0.79,0.012c0.529,0.007,1.059,0.012,1.588,0.017l0.91,0.008c0.783,0.005,1.566,0.008,2.35,0.008
	c98.721,0,180.776-39.181,197.422-90.77C1682.261,722.522,1666.16,704.504,1643.148,689.851z"/>
<path style="fill:#C96615;" d="M1296.163,736.193c20.971-48.501,100.355-84.578,195.087-84.578
	c60.718,0,115.13,14.822,151.899,38.236c23.012,14.653,39.113,32.672,45.524,52.528c0,0.001,0,0.002,0,0.003
	c0.098-0.303,0.19-0.608,0.284-0.912c0.023-0.074,0.046-0.147,0.069-0.221c0.123-0.405,0.241-0.809,0.356-1.215l0.005-0.017
	l0.243-0.892l0.108-0.401l0.205-0.819l0.109-0.451l0.182-0.789l0.114-0.518l0.157-0.744l0.108-0.549l0.143-0.751l0.089-0.508
	l0.212-1.303l0.103-0.683l0.087-0.667l0.081-0.649l0.07-0.623l0.075-0.718l0.053-0.596l0.061-0.755l0.04-0.558l0.046-0.803
	l0.026-0.533l0.031-0.893l0.014-0.433l0.015-1.34l-0.018-1.459l-0.018-0.504l-0.035-0.959l-0.031-0.554l-0.055-0.901l-0.045-0.554
	l-0.078-0.912l-0.056-0.535l-0.099-0.909l-0.07-0.544l-0.121-0.911l-0.08-0.53l-0.143-0.909l-0.092-0.527l-0.167-0.914l-0.101-0.513
	l-0.193-0.935l-0.105-0.474l-0.226-0.981l-0.103-0.42l-0.27-1.056l-0.087-0.328l-0.324-1.152l-0.069-0.238l-0.379-1.239
	l-0.049-0.156c-2.347-7.365-6.023-14.477-10.894-21.261c-0.598-0.833-1.215-1.662-1.85-2.486c-0.633-0.823-1.285-1.642-1.954-2.454
	c-2.677-3.253-5.635-6.42-8.854-9.494c-0.804-0.768-1.626-1.531-2.462-2.288c-0.838-0.757-1.691-1.508-2.56-2.252
	c-1.305-1.117-2.643-2.221-4.019-3.309l-1.386-1.084c-0.932-0.72-1.878-1.433-2.841-2.14c-0.963-0.706-1.939-1.406-2.932-2.099
	c-1.489-1.04-3.01-2.065-4.563-3.075c-1.036-0.673-2.088-1.339-3.151-1.997c-1.597-0.988-3.226-1.961-4.886-2.917
	c-1.107-0.638-2.227-1.267-3.361-1.89c-1.701-0.934-3.433-1.851-5.192-2.751c-1.468-0.751-2.955-1.488-4.464-2.214
	c-1.508-0.726-3.034-1.44-4.582-2.141c-0.62-0.281-1.24-0.559-1.867-0.835c-1.251-0.553-2.513-1.098-3.787-1.635
	c-4.461-1.878-9.07-3.656-13.815-5.327c-0.678-0.239-1.359-0.475-2.043-0.71c-2.734-0.937-5.513-1.84-8.333-2.705
	c-1.41-0.433-2.831-0.856-4.261-1.271c-1.431-0.414-2.872-0.82-4.322-1.216c-2.903-0.792-5.845-1.547-8.825-2.262
	c-2.048-0.492-4.115-0.966-6.199-1.421c-4.167-0.91-8.404-1.746-12.703-2.505c-2.149-0.379-4.316-0.739-6.496-1.079
	c-6.542-1.02-13.22-1.862-20.016-2.517c-2.265-0.218-4.543-0.415-6.835-0.592c-9.163-0.704-18.524-1.068-28.041-1.068
	s-18.877,0.364-28.041,1.068c-2.292,0.176-4.569,0.374-6.835,0.592c-6.796,0.655-13.474,1.497-20.016,2.517
	c-2.18,0.34-4.347,0.7-6.496,1.079c-4.299,0.759-8.535,1.595-12.703,2.505c-2.084,0.455-4.151,0.929-6.199,1.421
	c-6.635,1.594-13.082,3.38-19.318,5.344c-1.04,0.327-2.073,0.66-3.101,0.997c-1.029,0.337-2.05,0.68-3.066,1.027
	c-1.016,0.347-2.025,0.698-3.029,1.055c-1.504,0.535-2.996,1.081-4.472,1.637c-1.478,0.556-2.94,1.123-4.388,1.701
	c-0.967,0.384-1.926,0.774-2.878,1.168c-0.952,0.394-1.898,0.793-2.837,1.195c-0.939,0.403-1.871,0.81-2.797,1.223
	c-3.239,1.442-6.395,2.939-9.462,4.486c-39.879,20.126-64.872,49.008-64.872,81.096l0.008,0.87l0.006,0.397l0.025,0.813l0.016,0.499
	l0.041,0.798l0.028,0.516l0.057,0.799l0.04,0.489l0.073,0.808l0.051,0.502l0.09,0.804l0.048,0.381
	c0.127,1.012,0.279,2.02,0.456,3.024C1293.182,734.55,1294.674,735.369,1296.163,736.193z"/>
<path style="fill:#DE891A;" d="M1851.339,749.489c-37.63-45.88-89.308-86.98-150.308-116.756
	c16.716,20.409,31.869,42.049,42.38,66.152c11.839,27.228,17.333,57.77,11.933,86.987c-5.398,29.216-22.54,56.776-48.347,71.503
	c-40.155,22.966-95.795,13.59-129.559,45.174c-17.142,16.1-24.765,39.54-34.189,61.086c-9.471,21.545-23.298,43.706-45.695,50.857
	c-2.19,0.699-4.394,1.231-6.611,1.616c-1.836,26.712-8.26,49.28-20.205,73.666c-0.003,0.006-0.006,0.011-0.006,0.011
	c20.552,11.977,42.879,20.891,67.111,19.458c32.155-1.901,62.347-22.346,79.391-49.11c15.207-23.878,22.612-51.767,37.745-75.639
	c7.15-11.282,16.324-21.748,28.806-27.153c15.929-6.897,34.008-5.48,50.794-3.392c26.757,3.328,53.8,8.439,80.089-0.291
	c35.275-11.714,51.547-45.754,55.124-80.629C1874.058,831.471,1864.661,788.722,1851.339,749.489z M1470.758,1089.737
	c0.003-0.005,0.007-0.012,0.008-0.017C1470.764,1089.726,1470.761,1089.732,1470.758,1089.737z M1470.742,1089.769
	L1470.742,1089.769C1470.742,1089.769,1470.742,1089.769,1470.742,1089.769z M1470.792,1089.669
	c0.014-0.024,0.022-0.041,0.026-0.049C1470.813,1089.63,1470.803,1089.647,1470.792,1089.669z"/>
<path style="fill:#DE891A;" d="M1246.128,614.501c-3.773,20.425-13.286,40.038-27.487,55.026
	c38.759-26.9,83.302-49.117,131.841-64.173c-2.507-9.223-5.33-18.321-8.359-27.236c-16.245-19.806-35.107-38.72-56.206-56.217
	c-14.354-11.904-29.744-23.15-46.051-33.577c-15.249-9.751-31.296-18.784-48.051-26.962c16.716,20.409,31.869,42.05,42.382,66.152
	C1246.034,554.741,1251.527,585.284,1246.128,614.501z"/>
<path style="fill:#D86C12;" d="M1353.529,592.753c-0.571-0.771-1.144-1.542-1.723-2.312l-0.17-0.225
	c-0.544-0.724-1.093-1.446-1.645-2.168l-0.249-0.325c-0.519-0.678-1.042-1.354-1.567-2.029l-0.361-0.464
	c-0.486-0.623-0.976-1.246-1.468-1.868l-0.461-0.586c-0.461-0.577-0.922-1.154-1.385-1.73l-0.579-0.721
	c-0.422-0.522-0.847-1.043-1.272-1.564l-0.527-0.648l0.001,0.005c3.029,8.915,5.852,18.013,8.359,27.236
	c3.292-1.021,6.599-2.011,9.926-2.965c-2.206-3.203-4.479-6.389-6.82-9.557L1353.529,592.753z"/>
<path style="fill:#D86C12;" d="M570.301,779.286c-6.413-13.931-11.558-28.311-15.179-43.023c-0.054,1.691-0.098,3.381-0.108,5.066
	l-0.004,0.638c0,13.518,1.516,26.809,4.439,39.805l0.188,0.826c0.205,0.889,0.414,1.776,0.632,2.662
	c0.425,1.733,0.876,3.46,1.351,5.182c0.475,1.721,0.975,3.438,1.499,5.148c0.35,1.14,0.709,2.277,1.081,3.413
	c0.192,0.585,0.385,1.169,0.583,1.753c0.211,0.625,0.428,1.25,0.646,1.874c0.06,0.174,0.121,0.347,0.182,0.52
	c0.176,0.496,0.353,0.992,0.531,1.487c0.052,0.142,0.102,0.284,0.154,0.427c0.229,0.629,0.46,1.256,0.697,1.883
	c0.032,0.091,0.068,0.182,0.103,0.274c0.199,0.527,0.401,1.054,0.605,1.58c0.071,0.183,0.142,0.366,0.214,0.549
	c0.198,0.508,0.399,1.015,0.602,1.521c0.046,0.117,0.091,0.233,0.139,0.35c0.247,0.614,0.497,1.226,0.75,1.838
	c0.061,0.147,0.124,0.294,0.185,0.442c0.203,0.486,0.407,0.971,0.613,1.455c0.072,0.167,0.143,0.335,0.215,0.503
	c0.262,0.611,0.527,1.223,0.795,1.832l0,0c0.272,0.616,0.548,1.23,0.826,1.844c0.078,0.169,0.155,0.34,0.232,0.509
	c0.213,0.466,0.427,0.93,0.643,1.395c0.077,0.164,0.152,0.329,0.23,0.493c0.279,0.595,0.56,1.19,0.844,1.783
	c0.06,0.123,0.12,0.246,0.18,0.37c0.232,0.481,0.466,0.962,0.701,1.442c0.098,0.198,0.196,0.397,0.294,0.595
	c0.218,0.437,0.436,0.875,0.656,1.311c0.087,0.172,0.172,0.343,0.259,0.515c0.296,0.581,0.594,1.16,0.893,1.739
	c0.082,0.156,0.163,0.312,0.245,0.467c0.234,0.449,0.47,0.898,0.708,1.346c0.104,0.195,0.209,0.391,0.314,0.586
	c0.267,0.501,0.538,1.001,0.81,1.5c0.049,0.09,0.098,0.181,0.147,0.272c0.312,0.568,0.625,1.135,0.943,1.701
	c0.121,0.218,0.245,0.436,0.367,0.654c0.219,0.389,0.44,0.778,0.661,1.166c0.115,0.202,0.231,0.404,0.347,0.606
	c0.326,0.567,0.655,1.133,0.987,1.698c0.068,0.115,0.136,0.23,0.204,0.345c0.275,0.466,0.552,0.931,0.829,1.396
	c0.124,0.208,0.249,0.416,0.374,0.623c0.24,0.396,0.479,0.79,0.72,1.184c0.127,0.205,0.251,0.41,0.378,0.615
	c0.33,0.535,0.661,1.069,0.995,1.602c0.126,0.2,0.252,0.399,0.379,0.599c0.244,0.384,0.487,0.769,0.734,1.154
	c0.143,0.225,0.289,0.45,0.433,0.674c0.15,0.231,0.3,0.461,0.45,0.692c0.373,0.574,0.749,1.147,1.128,1.719
	c0.14,0.211,0.28,0.422,0.421,0.632c0.421,0.631,0.846,1.26,1.273,1.888c0.081,0.12,0.162,0.24,0.244,0.361
	c0.515,0.752,1.035,1.503,1.559,2.251c0.109,0.156,0.221,0.312,0.33,0.468c0.41,0.581,0.823,1.162,1.238,1.741
	c0.173,0.24,0.345,0.48,0.519,0.719c0.376,0.52,0.755,1.039,1.136,1.558c0.163,0.223,0.326,0.445,0.49,0.668
	c0.517,0.697,1.035,1.393,1.561,2.087c0.021,0.028,0.041,0.056,0.063,0.084c0.548,0.726,1.103,1.45,1.662,2.173
	c0.168,0.216,0.338,0.433,0.507,0.65c0.402,0.516,0.807,1.032,1.214,1.548c0.194,0.245,0.388,0.49,0.583,0.734
	c0.41,0.514,0.823,1.027,1.238,1.539c0.163,0.203,0.326,0.406,0.49,0.607c0.579,0.709,1.159,1.417,1.746,2.122
	c0.095,0.114,0.192,0.228,0.287,0.342c0.493,0.591,0.99,1.181,1.49,1.769c0.21,0.248,0.421,0.494,0.634,0.741
	c0.398,0.465,0.798,0.93,1.201,1.395c0.223,0.258,0.448,0.516,0.673,0.774c0.433,0.495,0.866,0.987,1.303,1.48
	c0.183,0.206,0.364,0.412,0.546,0.616c0.602,0.675,1.208,1.348,1.819,2.019c0.196,0.216,0.395,0.432,0.594,0.648
	c0.429,0.469,0.859,0.938,1.294,1.405c0.249,0.269,0.501,0.538,0.752,0.807c0.42,0.45,0.844,0.899,1.268,1.347
	c0.223,0.235,0.445,0.471,0.67,0.706c0.524,0.548,1.05,1.096,1.578,1.642c0.132,0.136,0.262,0.272,0.394,0.407
	c0.642,0.661,1.29,1.319,1.941,1.976c0.233,0.235,0.47,0.471,0.704,0.706c0.435,0.434,0.869,0.868,1.306,1.301
	c0.273,0.269,0.545,0.538,0.817,0.807c0.431,0.423,0.864,0.845,1.298,1.266c0.256,0.248,0.51,0.497,0.768,0.745
	c0.56,0.541,1.125,1.08,1.691,1.618c0.279,0.266,0.561,0.53,0.842,0.794c0.516,0.487,1.035,0.974,1.556,1.459
	c0.273,0.252,0.545,0.504,0.819,0.756c0.444,0.41,0.889,0.819,1.337,1.228c0.283,0.258,0.567,0.516,0.851,0.774
	c0.454,0.411,0.91,0.82,1.366,1.229c0.276,0.247,0.55,0.495,0.828,0.741c0.688,0.612,1.379,1.222,2.076,1.83
	c0.228,0.198,0.456,0.395,0.685,0.593c0.503,0.437,1.008,0.874,1.514,1.309c0.31,0.267,0.624,0.533,0.935,0.799
	c0.448,0.381,0.896,0.761,1.347,1.141c0.297,0.25,0.592,0.5,0.89,0.749c0.514,0.431,1.031,0.859,1.55,1.287
	c0.25,0.208,0.501,0.417,0.754,0.625c0.715,0.587,1.432,1.171,2.154,1.755c0.31,0.249,0.62,0.498,0.93,0.746
	c0.46,0.37,0.923,0.74,1.386,1.108c0.342,0.271,0.685,0.542,1.028,0.813c0.458,0.36,0.917,0.719,1.376,1.078
	c0.32,0.249,0.64,0.5,0.962,0.748c0.629,0.487,1.261,0.973,1.895,1.457c0.141,0.108,0.28,0.216,0.422,0.324
	c2.52-5.91,5.28-11.803,8.273-17.669c3.03-5.943,6.301-11.856,9.799-17.727c-15.539-7.808-30.127-17.582-43.418-28.657
	C605.627,834.727,583.946,808.93,570.301,779.286z"/>
<path style="fill:#BB1818;" d="M982.033,480.243c-98.717,0-180.771,39.177-197.419,90.763c1.031,3.195,2.402,6.322,3.923,9.415
	c4.168,4.695,9.066,8.788,14.717,12.039c12.244,7.045,24.662,8.677,38.37,5.513c8.925-2.061,24.307-7.608,31.408,0.944
	c3.171,3.818,5.416,8.101,8.984,11.644c4.133,4.105,9.357,7.629,14.992,9.256c10,2.887,18.634-1.541,25.923-8.175
	c7.518-6.844,14.249-14.857,24.581-17.313c11.7-2.782,19.822,5.221,27.586,12.773c9.831,9.562,20.808,18.073,34.453,21.222
	c13.934,3.216,27.536-0.804,38.443-9.867c10.898-9.056,16.155-20.263,17.762-34.177c1.201-10.392,0.681-23.317,9.084-31.028
	c6.677-6.125,17.249-4.93,25.611-5.27c10.141-0.413,20.211-2.561,26.593-11.213c3.829-5.191,6.026-11.614,6.889-18.292
	C1097.164,495.065,1042.75,480.243,982.033,480.243z"/>
<path style="fill:#AD1917;" d="M1133.932,518.479c-0.863,6.677-3.06,13.101-6.889,18.292c-6.383,8.652-16.452,10.8-26.593,11.213
	c-8.363,0.34-18.934-0.855-25.611,5.27c-8.404,7.71-7.883,20.635-9.084,31.028c-1.607,13.914-6.865,25.121-17.762,34.177
	c-10.906,9.064-24.509,13.083-38.443,9.867c-13.644-3.149-24.621-11.66-34.453-21.222c-7.763-7.553-15.885-15.555-27.586-12.773
	c-10.332,2.456-17.062,10.469-24.581,17.313c-7.289,6.634-15.923,11.062-25.923,8.175c-5.635-1.627-10.859-5.152-14.992-9.256
	c-3.568-3.543-5.813-7.826-8.984-11.644c-7.101-8.553-22.483-3.005-31.408-0.944c-13.708,3.164-26.126,1.532-38.37-5.513
	c-5.706-3.282-10.649-7.42-14.845-12.173c16.932,34.625,63.815,62.516,124.468,74.761c0.05,0.01,0.1,0.021,0.151,0.031
	c0.448,0.09,0.896,0.18,1.346,0.268c0.065,0.013,0.131,0.026,0.196,0.039c0.414,0.081,0.828,0.161,1.242,0.241
	c0.139,0.027,0.279,0.054,0.419,0.08c0.362,0.069,0.727,0.138,1.092,0.206c0.18,0.034,0.36,0.067,0.541,0.1
	c0.346,0.064,0.692,0.128,1.039,0.191c0.191,0.035,0.383,0.069,0.573,0.104c0.33,0.059,0.66,0.119,0.99,0.177
	c0.25,0.044,0.501,0.088,0.75,0.131c0.277,0.048,0.552,0.097,0.828,0.144c0.531,0.092,1.063,0.182,1.597,0.271l0.157,0.026
	c0.611,0.102,1.224,0.203,1.839,0.301l0.209,0.034c0.612,0.098,1.227,0.195,1.842,0.29l0.084,0.013
	c1.829,0.282,3.67,0.549,5.519,0.803l0.554,0.077l1.438,0.191l0.757,0.099l1.41,0.179l0.833,0.103l1.331,0.161l0.897,0.104
	c1.526,0.176,3.057,0.343,4.596,0.5l1.072,0.109l1.119,0.108l1.19,0.113l1.079,0.098l1.269,0.11l1.043,0.089l1.335,0.107
	l0.962,0.076c0.744,0.057,1.488,0.112,2.235,0.164l0.716,0.048c0.524,0.035,1.047,0.071,1.573,0.104l1.054,0.065l1.307,0.078
	l1.016,0.056l1.37,0.071l1.01,0.05l1.475,0.067l0.85,0.037c0.78,0.032,1.562,0.063,2.346,0.09l0.275,0.009
	c0.696,0.023,1.392,0.045,2.089,0.065l0.79,0.021c0.542,0.015,1.087,0.028,1.632,0.04l0.844,0.017
	c0.545,0.011,1.089,0.02,1.634,0.028l0.793,0.011c0.528,0.007,1.056,0.012,1.587,0.017l0.909,0.008
	c0.783,0.005,1.566,0.008,2.351,0.008c18.167,0,35.77-1.327,52.507-3.814c1.593-0.237,3.179-0.484,4.758-0.742
	c7.101-1.16,14.035-2.529,20.781-4.097c1.5-0.348,2.99-0.706,4.471-1.074c4.441-1.103,8.796-2.292,13.057-3.563
	c1.421-0.424,2.831-0.857,4.231-1.299c1.398-0.442,2.787-0.893,4.166-1.353c2.067-0.69,4.11-1.399,6.127-2.128
	c3.362-1.216,6.654-2.484,9.87-3.806c1.286-0.528,2.56-1.065,3.824-1.61c1.262-0.545,2.512-1.098,3.75-1.659
	c2.476-1.122,4.902-2.276,7.275-3.46c1.188-0.592,2.362-1.193,3.522-1.801c0.58-0.304,1.157-0.61,1.732-0.917
	c1.147-0.616,2.281-1.238,3.402-1.868c1.12-0.63,2.227-1.268,3.319-1.913c0.546-0.322,1.089-0.646,1.628-0.972
	c1.08-0.651,2.143-1.311,3.194-1.976c2.627-1.665,5.163-3.373,7.607-5.124c0.977-0.7,1.939-1.407,2.887-2.12
	c0.947-0.713,1.879-1.432,2.794-2.159c0.917-0.726,1.817-1.458,2.702-2.197c0.885-0.739,1.755-1.483,2.609-2.234
	c0.853-0.751,1.692-1.508,2.511-2.27c1.233-1.144,2.427-2.302,3.584-3.472c0.772-0.78,1.527-1.566,2.265-2.357l1.095-1.191
	c1.442-1.594,2.816-3.209,4.119-4.846c0.653-0.818,1.286-1.642,1.903-2.47c0.925-1.242,1.808-2.497,2.651-3.761l0.831-1.268
	c0.543-0.848,1.069-1.701,1.577-2.559l0.746-1.29c0.487-0.862,0.957-1.728,1.408-2.599c0.45-0.871,0.881-1.746,1.294-2.625
	c0.643-1.374,1.24-2.759,1.789-4.154c0.328-0.837,0.641-1.677,0.934-2.521c0.315-0.9,0.609-1.804,0.882-2.711l0.27-0.932
	c-0.205,0.717-0.42,1.431-0.65,2.143C1173.046,551.152,1156.944,533.133,1133.932,518.479z"/>
<path style="fill:#9B1915;" d="M905.257,509.354c3.027,1.581,7.084,3.303,10.719,2.236c2.473-0.726,4.106-2.224,3.274-3.854
	c-0.967-1.894-5.131-3.024-8.654-3.229c-2.327-0.135-4.498,0.086-5.61,0.742C902.99,506.427,902.35,507.837,905.257,509.354z"/>
<path style="fill:#9B1915;" d="M897.162,594.041c3.028,1.668,7.084,3.484,10.72,2.358c2.473-0.765,4.105-2.346,3.274-4.065
	c-0.967-1.998-5.132-3.19-8.656-3.406c-2.326-0.143-4.498,0.091-5.609,0.784C894.895,590.953,894.255,592.442,897.162,594.041z"/>
<path style="fill:#9B1915;" d="M1039.825,572.233c3.029,1.668,7.084,3.484,10.72,2.358c2.472-0.766,4.106-2.347,3.274-4.065
	c-0.967-1.998-5.132-3.19-8.655-3.406c-2.328-0.143-4.498,0.091-5.611,0.783C1037.558,569.144,1036.918,570.633,1039.825,572.233z"
	/>
<path style="fill:#9B1915;" d="M996.906,530.192c3.027,1.668,7.084,3.484,10.719,2.358c2.473-0.766,4.106-2.347,3.275-4.065
	c-0.968-1.998-5.132-3.19-8.655-3.406c-2.327-0.143-4.498,0.091-5.611,0.783C994.639,527.103,993.998,528.592,996.906,530.192z"/>
<path style="fill:#9B1915;" d="M887.87,543.382c2.327,0.146,4.498-0.094,5.611-0.802c1.995-1.271,2.635-2.795-0.273-4.433
	c-3.027-1.707-7.084-3.567-10.719-2.414c-2.473,0.784-4.106,2.402-3.274,4.162C880.182,541.94,884.347,543.161,887.87,543.382z"/>
<path style="fill:#9B1915;" d="M940.265,543.394c1.49,0.102,2.88-0.065,3.593-0.559c1.277-0.886,1.687-1.949-0.175-3.092
	c-1.939-1.191-4.536-2.488-6.865-1.684c-1.584,0.547-2.63,1.676-2.097,2.903C935.341,542.388,938.009,543.24,940.265,543.394z"/>
<path style="fill:#9B1915;" d="M1049.354,514.699c1.49,0.102,2.88-0.066,3.592-0.56c1.277-0.887,1.687-1.949-0.174-3.092
	c-1.939-1.191-4.538-2.488-6.865-1.684c-1.584,0.547-2.63,1.676-2.097,2.903C1044.43,513.693,1047.096,514.544,1049.354,514.699z"/>
<path style="fill:#9B1915;" d="M1034.87,611.401c1.49,0.102,2.88-0.065,3.593-0.56c1.277-0.886,1.687-1.949-0.175-3.092
	c-1.939-1.191-4.536-2.488-6.865-1.684c-1.583,0.547-2.629,1.676-2.097,2.903C1029.946,610.395,1032.614,611.247,1034.87,611.401z"
	/>
<path style="fill:#9B1915;" d="M1089.653,525.01c1.49,0.102,2.88-0.065,3.593-0.559c1.278-0.886,1.687-1.949-0.173-3.092
	c-1.941-1.191-4.538-2.488-6.866-1.685c-1.583,0.547-2.629,1.676-2.097,2.903C1084.729,524.005,1087.397,524.856,1089.653,525.01z"
	/>
<path style="fill:#9B1915;" d="M957.726,572.142c1.49,0.102,2.88-0.065,3.592-0.56c1.277-0.886,1.687-1.949-0.174-3.092
	c-1.94-1.191-4.537-2.488-6.865-1.684c-1.584,0.547-2.63,1.676-2.097,2.903C952.802,571.136,955.469,571.987,957.726,572.142z"/>
<path style="fill:#9B1915;" d="M844.635,569.325c1.996,0.137,3.859-0.087,4.814-0.75c1.711-1.188,2.262-2.612-0.233-4.143
	c-2.598-1.595-6.079-3.334-9.2-2.257c-2.122,0.733-3.523,2.246-2.81,3.89C838.038,567.978,841.611,569.118,844.635,569.325z"/>
<path style="fill:#9B1915;" d="M975.763,499.624c1.998,0.137,3.861-0.087,4.815-0.749c1.712-1.188,2.261-2.612-0.233-4.144
	c-2.6-1.596-6.08-3.334-9.201-2.256c-2.121,0.732-3.522,2.245-2.809,3.89C969.165,498.276,972.739,499.417,975.763,499.624z"/>
<path style="fill:#9B1915;" d="M1001.554,590.209c2.327,0.159,4.498-0.102,5.611-0.874c1.995-1.384,2.635-3.043-0.273-4.828
	c-3.027-1.859-7.084-3.885-10.719-2.63c-2.473,0.854-4.106,2.617-3.275,4.533C993.866,588.639,998.031,589.968,1001.554,590.209z"/>
<path style="fill:#9B1915;" d="M1414.473,680.726c3.029,1.581,7.084,3.303,10.72,2.236c2.473-0.726,4.106-2.224,3.274-3.854
	c-0.967-1.894-5.131-3.024-8.656-3.229c-2.326-0.136-4.498,0.086-5.609,0.742C1412.207,677.798,1411.567,679.209,1414.473,680.726z"
	/>
<path style="fill:#9B1915;" d="M1406.378,765.414c3.029,1.667,7.084,3.484,10.72,2.358c2.473-0.766,4.106-2.347,3.274-4.065
	c-0.967-1.998-5.133-3.19-8.655-3.406c-2.326-0.143-4.498,0.091-5.61,0.783C1404.112,762.325,1403.472,763.813,1406.378,765.414z"/>
<path style="fill:#9B1915;" d="M1549.041,743.605c3.029,1.667,7.086,3.484,10.72,2.358c2.473-0.766,4.106-2.346,3.275-4.065
	c-0.968-1.998-5.133-3.19-8.656-3.406c-2.327-0.143-4.498,0.091-5.61,0.783C1546.775,740.517,1546.135,742.004,1549.041,743.605z"/>
<path style="fill:#9B1915;" d="M1506.122,701.564c3.028,1.667,7.084,3.484,10.72,2.358c2.473-0.766,4.106-2.347,3.274-4.065
	c-0.967-1.998-5.131-3.19-8.655-3.406c-2.326-0.143-4.498,0.091-5.609,0.783C1503.855,698.475,1503.216,699.963,1506.122,701.564z"
	/>
<path style="fill:#9B1915;" d="M1397.087,714.753c2.327,0.146,4.497-0.093,5.61-0.802c1.995-1.271,2.635-2.794-0.272-4.433
	c-3.027-1.707-7.084-3.568-10.72-2.414c-2.472,0.784-4.106,2.402-3.274,4.162C1389.398,713.312,1393.564,714.532,1397.087,714.753z"
	/>
<path style="fill:#9B1915;" d="M1449.482,714.766c1.49,0.102,2.88-0.065,3.592-0.559c1.277-0.887,1.687-1.949-0.174-3.092
	c-1.94-1.191-4.538-2.488-6.865-1.684c-1.584,0.547-2.629,1.676-2.097,2.903C1444.557,713.761,1447.225,714.611,1449.482,714.766z"
	/>
<path style="fill:#9B1915;" d="M1558.57,686.07c1.491,0.102,2.881-0.065,3.594-0.56c1.277-0.886,1.687-1.949-0.175-3.092
	c-1.939-1.191-4.537-2.488-6.866-1.684c-1.582,0.547-2.628,1.676-2.096,2.903C1553.645,685.065,1556.313,685.916,1558.57,686.07z"/>
<path style="fill:#9B1915;" d="M1544.087,782.773c1.489,0.102,2.88-0.065,3.592-0.559c1.277-0.887,1.687-1.95-0.175-3.092
	c-1.939-1.191-4.536-2.488-6.865-1.685c-1.584,0.547-2.63,1.676-2.097,2.903C1539.162,781.768,1541.83,782.618,1544.087,782.773z"/>
<path style="fill:#9B1915;" d="M1598.87,696.382c1.49,0.102,2.88-0.065,3.592-0.56c1.277-0.886,1.687-1.949-0.174-3.092
	c-1.939-1.191-4.536-2.488-6.865-1.683c-1.584,0.547-2.63,1.676-2.097,2.903C1593.946,695.376,1596.614,696.227,1598.87,696.382z"/>
<path style="fill:#9B1915;" d="M1466.941,743.514c1.491,0.102,2.882-0.066,3.594-0.559c1.277-0.887,1.687-1.95-0.175-3.092
	c-1.939-1.19-4.538-2.488-6.866-1.684c-1.582,0.547-2.628,1.676-2.096,2.903C1462.017,742.508,1464.684,743.359,1466.941,743.514z"
	/>
<path style="fill:#9B1915;" d="M1358.666,739.948c1.712-1.188,2.261-2.612-0.233-4.144c-2.6-1.596-6.081-3.334-9.2-2.256
	c-2.122,0.732-3.523,2.246-2.81,3.89c0.829,1.911,4.404,3.053,7.429,3.259C1355.849,740.833,1357.712,740.61,1358.666,739.948z"/>
<path style="fill:#9B1915;" d="M1484.98,670.995c1.996,0.137,3.86-0.087,4.814-0.75c1.713-1.188,2.262-2.612-0.233-4.143
	c-2.599-1.595-6.079-3.334-9.199-2.257c-2.122,0.734-3.524,2.246-2.81,3.89C1478.382,669.648,1481.957,670.788,1484.98,670.995z"/>
<path style="fill:#9B1915;" d="M1510.771,761.581c2.327,0.159,4.498-0.102,5.61-0.874c1.995-1.384,2.634-3.044-0.272-4.828
	c-3.029-1.859-7.084-3.885-10.72-2.629c-2.471,0.854-4.106,2.617-3.274,4.533C1503.082,760.011,1507.248,761.34,1510.771,761.581z"
	/>
<path style="fill:#BB1818;" d="M1064.233,743.544c-98.715,0-180.769,39.176-197.419,90.763c1.031,3.193,2.401,6.319,3.921,9.411
	c4.168,4.696,9.07,8.791,14.72,12.043c12.244,7.045,24.662,8.677,38.37,5.513c8.925-2.06,24.307-7.609,31.409,0.944
	c3.17,3.818,5.417,8.101,8.984,11.643c4.133,4.105,9.358,7.629,14.992,9.256c10.001,2.888,18.635-1.541,25.923-8.175
	c7.518-6.843,14.248-14.857,24.58-17.313c11.701-2.781,19.822,5.221,27.587,12.774c9.829,9.562,20.807,18.072,34.451,21.222
	c13.934,3.216,27.538-0.804,38.445-9.867c10.897-9.056,16.154-20.263,17.762-34.176c1.201-10.393,0.68-23.317,9.085-31.028
	c6.676-6.125,17.249-4.929,25.61-5.27c10.141-0.413,20.21-2.561,26.593-11.213c3.829-5.191,6.026-11.615,6.889-18.291
	C1179.365,758.366,1124.952,743.544,1064.233,743.544z"/>
<path style="fill:#AD1917;" d="M1216.133,781.78c-0.863,6.676-3.06,13.1-6.889,18.291c-6.383,8.652-16.452,10.8-26.593,11.213
	c-8.361,0.341-18.934-0.855-25.61,5.27c-8.405,7.711-7.883,20.635-9.085,31.028c-1.608,13.914-6.865,25.121-17.762,34.176
	c-10.906,9.064-24.511,13.083-38.445,9.867c-13.644-3.15-24.621-11.659-34.451-21.222c-7.765-7.552-15.886-15.555-27.587-12.774
	c-10.332,2.456-17.062,10.47-24.58,17.313c-7.289,6.634-15.922,11.063-25.923,8.175c-5.634-1.627-10.859-5.152-14.992-9.256
	c-3.566-3.542-5.814-7.826-8.984-11.643c-7.102-8.553-22.483-3.005-31.409-0.944c-13.708,3.164-26.126,1.532-38.37-5.513
	c-5.705-3.282-10.649-7.42-14.843-12.173c16.935,34.633,63.833,62.527,124.501,74.768c0.065,0.013,0.13,0.027,0.195,0.04
	c0.428,0.086,0.855,0.171,1.284,0.255c0.094,0.018,0.187,0.037,0.279,0.055c0.408,0.08,0.817,0.159,1.227,0.238
	c0.129,0.025,0.259,0.049,0.388,0.074c0.376,0.071,0.75,0.143,1.126,0.213c0.158,0.029,0.316,0.058,0.473,0.088
	c0.368,0.068,0.734,0.135,1.102,0.203c0.177,0.032,0.354,0.064,0.53,0.095c0.338,0.061,0.677,0.122,1.015,0.182
	c0.279,0.049,0.56,0.097,0.84,0.146c0.247,0.043,0.493,0.086,0.74,0.129c0.535,0.092,1.07,0.183,1.607,0.272l0.03,0.005
	c0.639,0.107,1.279,0.211,1.919,0.314l0.147,0.023c0.624,0.1,1.248,0.198,1.874,0.295l0.103,0.016
	c1.871,0.288,3.755,0.562,5.648,0.82l0.369,0.051c0.521,0.071,1.045,0.14,1.567,0.208l0.614,0.08
	c0.508,0.066,1.017,0.13,1.528,0.194l0.667,0.082l1.487,0.18l0.654,0.076c1.66,0.193,3.328,0.374,5.003,0.544l0.803,0.082
	l1.291,0.125l0.999,0.094l1.227,0.111l1.095,0.095l1.199,0.102l1.088,0.088l1.196,0.094c0.594,0.046,1.188,0.088,1.783,0.131
	l1.461,0.1l1.181,0.079l1.235,0.076l1.11,0.066l1.17,0.065l1.188,0.062l1.172,0.059l1.216,0.055l1.1,0.048
	c0.659,0.027,1.321,0.052,1.984,0.076l1.024,0.034c0.528,0.017,1.057,0.035,1.586,0.05l1.012,0.027l1.391,0.034l1.027,0.021
	l1.419,0.025l0.986,0.014l1.333,0.014l1.146,0.01c0.504,0.003,1.009,0.004,1.514,0.005l0.772,0.003
	c27.711,0,54.111-3.087,78.118-8.669c1.92-0.447,3.825-0.91,5.715-1.388c1.889-0.478,3.763-0.972,5.62-1.481
	c2.785-0.764,5.534-1.562,8.244-2.395c2.82-0.866,5.599-1.768,8.333-2.705c0.863-0.296,1.72-0.597,2.574-0.899
	c1.069-0.379,2.131-0.764,3.187-1.154c3.165-1.17,6.264-2.387,9.298-3.651c0.539-0.224,1.076-0.451,1.611-0.678
	c0.721-0.307,1.44-0.616,2.153-0.929c1.19-0.521,2.37-1.049,3.536-1.584c2.385-1.093,4.722-2.215,7.009-3.366
	c1.055-0.53,2.101-1.067,3.135-1.609c0.779-0.409,1.551-0.823,2.319-1.239c28.901-15.668,49.18-36.121,56.57-59.021
	C1255.248,814.452,1239.146,796.433,1216.133,781.78z"/>
<path style="fill:#C96615;" d="M1174.331,722.926c-1.345-0.486-2.7-0.964-4.067-1.432c-3.418-1.171-6.904-2.288-10.456-3.348
	c-3.552-1.059-7.167-2.062-10.844-3.004c-25.738-6.6-54.45-10.285-84.729-10.285h-0.001c-57.963,0-110.181,13.507-146.789,35.102
	c-2.732,1.612-5.378,3.269-7.931,4.968c-1.532,1.02-3.031,2.054-4.498,3.105c-2.443,1.75-4.792,3.541-7.044,5.372
	c-1.351,1.099-2.668,2.211-3.948,3.337c-1.706,1.502-3.348,3.027-4.925,4.576c-0.789,0.774-1.561,1.555-2.315,2.34
	c-14.721,15.323-23.055,32.782-23.055,51.311l0.015,1.34l0.014,0.432l0.031,0.895l0.026,0.531l0.046,0.807l0.04,0.556l0.061,0.755
	l0.053,0.596l0.075,0.719l0.07,0.622l0.083,0.655l0.086,0.659l0.127,0.843l0.183,1.122l0.093,0.536l0.142,0.743l0.109,0.553
	l0.156,0.737l0.117,0.529l0.181,0.783l0.109,0.452l0.205,0.819l0.109,0.405l0.239,0.883l0.022,0.076
	c0.104,0.364,0.21,0.727,0.32,1.091c0.03,0.1,0.061,0.201,0.093,0.301c0.075,0.244,0.151,0.487,0.228,0.73
	c0.019,0.057,0.035,0.115,0.055,0.172c0,0,0-0.002,0.001-0.003c16.651-51.587,98.704-90.763,197.419-90.763
	c60.718,0,115.131,14.822,151.9,38.236c23.013,14.653,39.115,32.672,45.523,52.529c0,0.001,0,0.001,0,0.002
	c0.005-0.019,0.012-0.038,0.017-0.057c0.089-0.274,0.173-0.547,0.258-0.821c0.027-0.09,0.056-0.18,0.083-0.27
	c0.115-0.381,0.227-0.763,0.336-1.146l0.022-0.076l0.24-0.883l0.109-0.405l0.205-0.819l0.109-0.452l0.181-0.783l0.117-0.529
	l0.156-0.737l0.109-0.553l0.142-0.743l0.093-0.536l0.184-1.122l0.127-0.843l0.085-0.659l0.083-0.655l0.07-0.622l0.075-0.719
	l0.053-0.596l0.061-0.755l0.04-0.556l0.046-0.807l0.026-0.531l0.032-0.895l0.013-0.432l0.015-1.34l-0.018-1.459l-0.018-0.504
	l-0.035-0.959l-0.031-0.555l-0.055-0.901l-0.045-0.554l-0.078-0.912l-0.056-0.535l-0.099-0.909l-0.069-0.544l-0.122-0.911
	l-0.08-0.53l-0.143-0.909l-0.091-0.527l-0.167-0.914l-0.101-0.513l-0.193-0.935l-0.105-0.474l-0.227-0.981l-0.103-0.42l-0.27-1.056
	l-0.087-0.328l-0.324-1.152l-0.069-0.238l-0.379-1.239l-0.049-0.156c-9.557-29.985-41.201-55.798-85.388-72.192
	C1175.673,723.414,1175.003,723.169,1174.331,722.926z"/>
<path style="fill:#9B1915;" d="M987.458,772.655c3.027,1.581,7.084,3.303,10.72,2.236c2.472-0.726,4.106-2.224,3.274-3.854
	c-0.967-1.894-5.133-3.024-8.656-3.229c-2.327-0.135-4.498,0.087-5.61,0.742C985.19,769.727,984.551,771.138,987.458,772.655z"/>
<path style="fill:#9B1915;" d="M979.363,857.343c3.028,1.667,7.085,3.484,10.719,2.358c2.473-0.766,4.106-2.347,3.275-4.065
	c-0.968-1.998-5.132-3.19-8.655-3.406c-2.328-0.143-4.498,0.091-5.611,0.783C977.096,854.254,976.456,855.742,979.363,857.343z"/>
<path style="fill:#9B1915;" d="M1122.026,835.534c3.028,1.667,7.084,3.484,10.72,2.358c2.472-0.766,4.106-2.347,3.274-4.065
	c-0.967-1.998-5.132-3.19-8.655-3.406c-2.328-0.143-4.498,0.092-5.609,0.783C1119.76,832.446,1119.12,833.933,1122.026,835.534z"/>
<path style="fill:#9B1915;" d="M1079.107,793.493c3.028,1.667,7.084,3.484,10.72,2.358c2.472-0.766,4.106-2.347,3.274-4.065
	c-0.967-1.998-5.133-3.19-8.656-3.406c-2.327-0.143-4.498,0.091-5.611,0.783C1076.839,790.404,1076.201,791.892,1079.107,793.493z"
	/>
<path style="fill:#9B1915;" d="M970.072,806.682c2.326,0.146,4.498-0.093,5.609-0.802c1.995-1.271,2.635-2.794-0.271-4.432
	c-3.029-1.707-7.084-3.567-10.72-2.414c-2.473,0.784-4.106,2.402-3.274,4.162C962.383,805.241,966.547,806.461,970.072,806.682z"/>
<path style="fill:#9B1915;" d="M1022.465,806.695c1.49,0.102,2.881-0.065,3.593-0.559c1.278-0.887,1.688-1.949-0.173-3.092
	c-1.941-1.191-4.538-2.488-6.866-1.684c-1.583,0.547-2.629,1.676-2.097,2.903C1017.541,805.689,1020.209,806.54,1022.465,806.695z"
	/>
<path style="fill:#9B1915;" d="M1131.555,778c1.49,0.102,2.88-0.065,3.592-0.559c1.278-0.886,1.687-1.949-0.174-3.092
	c-1.939-1.191-4.536-2.488-6.865-1.684c-1.584,0.547-2.63,1.676-2.097,2.903C1126.63,776.994,1129.298,777.845,1131.555,778z"/>
<path style="fill:#9B1915;" d="M1117.071,874.702c1.49,0.102,2.88-0.065,3.593-0.559c1.278-0.887,1.688-1.95-0.173-3.092
	c-1.941-1.191-4.538-2.488-6.866-1.684c-1.583,0.547-2.629,1.676-2.097,2.903C1112.146,873.696,1114.814,874.547,1117.071,874.702z"
	/>
<path style="fill:#9B1915;" d="M1171.854,788.311c1.489,0.102,2.881-0.065,3.593-0.559c1.277-0.886,1.687-1.95-0.174-3.092
	c-1.939-1.19-4.538-2.488-6.866-1.683c-1.582,0.547-2.629,1.676-2.096,2.903C1166.93,787.305,1169.598,788.156,1171.854,788.311z"/>
<path style="fill:#9B1915;" d="M1039.926,835.443c1.49,0.102,2.88-0.065,3.592-0.56c1.277-0.887,1.687-1.949-0.174-3.092
	c-1.939-1.191-4.536-2.489-6.865-1.685c-1.584,0.547-2.63,1.676-2.097,2.903C1035.002,834.437,1037.67,835.288,1039.926,835.443z"/>
<path style="fill:#9B1915;" d="M926.836,832.626c1.997,0.136,3.861-0.088,4.814-0.75c1.713-1.188,2.262-2.612-0.233-4.143
	c-2.598-1.596-6.079-3.334-9.199-2.257c-2.122,0.733-3.525,2.246-2.81,3.89C920.238,831.279,923.813,832.419,926.836,832.626z"/>
<path style="fill:#9B1915;" d="M1057.965,762.924c1.996,0.137,3.859-0.087,4.814-0.75c1.712-1.188,2.261-2.612-0.233-4.143
	c-2.6-1.595-6.08-3.334-9.2-2.256c-2.122,0.732-3.523,2.245-2.81,3.89C1051.367,761.577,1054.941,762.717,1057.965,762.924z"/>
<path style="fill:#9B1915;" d="M1083.756,853.51c2.326,0.159,4.498-0.102,5.609-0.874c1.995-1.384,2.635-3.044-0.271-4.828
	c-3.029-1.859-7.084-3.885-10.72-2.63c-2.473,0.854-4.106,2.617-3.274,4.533C1076.067,851.94,1080.231,853.269,1083.756,853.51z"/>
</svg>
